# xmcd
#
# Track frame offsets:
#	150
#	18761
#	33109
#	50001
#	75173
#	92298
#	113977
#	140300
#	161715
#	170482
#	182498
#	193819
#	207817
#	218674
#	230365
#	240529
#	254907
#	265851
#
# Disc length: 3699 seconds
# Revision: 0
# Processed by: cddbd v1.5.2PL0 Copyright (c) Steve Scherf et al.
# Submitted via: dBpowerAMP V12.0
#
DISCID=e70e7112
DTITLE=Various Artist - Complete Sister Rosetta Tharpe (1960-1961) - Vol 7 - Disc 3
DYEAR=2012
DGENRE=Gospel
TTITLE0=Sister Rosetta Tharpe and The Gospel All Stars - On My Way
TTITLE1=Sister Rosetta Tharpe and The Gospel All Stars - This Is A Mean Old World To Live In
TTITLE2=Sister Rosetta Tharpe and The Gospel All Stars - This Train
TTITLE3=Sister Rosetta Tharpe and The Gospel All Stars - I Hear My Mother Call My Name
TTITLE4=Sister Rosetta Tharpe and The Gospel All Stars - Stretch Out
TTITLE5=Sister Rosetta Tharpe and The Gospel All Stars - Ring Those Golden Bells
TTITLE6=Sister Rosetta Tharpe and The Gospel All Stars - I Look Down The Road And I Wonder
TTITLE7=Sister Rosetta Tharpe and The Gospel All Stars - Nobody Knows, Nobody Cares
TTITLE8=Sister Rosetta Tharpe and The Gospel All Stars - That's All
TTITLE9=Marie Knight and The Sam Price Trio - The Florida Storm
TTITLE10=Marie Knight and The Sam Price Trio - Gospel Train
TTITLE11=Marie Knight and The Sam Price Trio - I Thank You Jesus
TTITLE12=Marie Knight and The Sam Price Trio - Lord Search My Heart
TTITLE13=Marie Knight and The Sam Price Trio - On My Appointed Time
TTITLE14=Marie Knight and The Sam Price Trio - The Storm Is Passing Over
TTITLE15=Marie Knight and The Sam Price Trio - I Must Tell Jesus
TTITLE16=Marie Knight and The Sam Price Trio - Who Rolled The Stone Away
TTITLE17=Marie Knight and The Sam Price Trio - Mircles
EXTD=
EXTT0=
EXTT1=
EXTT2=
EXTT3=
EXTT4=
EXTT5=
EXTT6=
EXTT7=
EXTT8=
EXTT9=
EXTT10=
EXTT11=
EXTT12=
EXTT13=
EXTT14=
EXTT15=
EXTT16=
EXTT17=
PLAYORDER=
